<svg xmlns="http://www.w3.org/2000/svg" xmlns:xlink="http://www.w3.org/1999/xlink" version="1.1" x="0" y="0" xml:space="preserve" height="128" width="128" viewBox="0 0 100 100">
  <path fill="#fff" d="M51.6 64.6l-6.5 17.9c-0.9 2.5-3.6 3.8-6.1 2.9l0 0c-2.5-0.9-3.8-3.6-2.9-6.1l6.5-17.9c0.9-2.5 3.6-3.8 6.1-2.9l0 0C51.2 59.3 52.5 62.1 51.6 64.6z" ></path>
  <path fill="#fff" d="M94.6 23.9H62.2c-1.6 0-2.9-1.3-2.9-2.9v-3.8c0-1.6 1.3-2.9 2.9-2.9h32.4c1.6 0 2.9 1.3 2.9 2.9V21C97.5 22.6 96.2 23.9 94.6 23.9z"></path>
  <path fill="#fff" d="M94.6 38.5H43.1c-1.6 0-2.9-1.3-2.9-2.9v-3.8c0-1.6 1.3-2.9 2.9-2.9h51.5c1.6 0 2.9 1.3 2.9 2.9v3.8C97.5 37.2 96.2 38.5 94.6 38.5z"></path>
  <path fill="#fff" d="M52.1 23.9H5.4c-1.6 0-2.9-1.3-2.9-2.9v-3.8c0-1.6 1.3-2.9 2.9-2.9h46.8c1.6 0 2.9 1.3 2.9 2.9V21C55 22.6 53.7 23.9 52.1 23.9z"></path>
  <path fill="#fff" d="M33.5 67.7H5.4c-1.6 0-2.9-1.3-2.9-2.9V61c0-1.6 1.3-2.9 2.9-2.9h28.2c1.6 0 2.9 1.3 2.9 2.9v3.8C36.4 66.4 35.1 67.7 33.5 67.7z"></path>
  <path fill="#fff" d="M9.2 67.7H5.4c-1.6 0-2.9-1.3-2.9-2.9V17.2c0-1.6 1.3-2.9 2.9-2.9h3.8c1.6 0 2.9 1.3 2.9 2.9v47.6C12 66.4 10.8 67.7 9.2 67.7z"></path>
  <path fill="#fff" d="M94.6 67.7H62.2c-1.6 0-2.9-1.3-2.9-2.9V61c0-1.6 1.3-2.9 2.9-2.9h32.4c1.6 0 2.9 1.3 2.9 2.9v3.8C97.5 66.4 96.2 67.7 94.6 67.7z"></path>
  <path fill="#fff" d="M36.1 82.5l-6.5-17.9c-0.9-2.5 0.4-5.2 2.9-6.1l0 0c2.5-0.9 5.2 0.4 6.1 2.9l6.5 17.9c0.9 2.5-0.4 5.2-2.9 6.1h0C39.8 86.3 37 85 36.1 82.5z"></path>
  <path fill="#fff" d="M52.6 67.7h-5.9c-1.6 0-2.9-1.3-2.9-2.9V61c0-1.6 1.3-2.9 2.9-2.9h5.9c1.6 0 2.9 1.3 2.9 2.9v3.8C55.5 66.4 54.2 67.7 52.6 67.7z"></path>
  <path fill="#fff" d="M94.6 53.1H43.1c-1.6 0-2.9-1.3-2.9-2.9v-3.8c0-1.6 1.3-2.9 2.9-2.9h51.5c1.6 0 2.9 1.3 2.9 2.9v3.8C97.5 51.8 96.2 53.1 94.6 53.1z"></path>
</svg>

