<svg xmlns="http://www.w3.org/2000/svg" version="1.1" xmlns:xlink="http://www.w3.org/1999/xlink"
     xmlns:svgjs="http://svgjs.dev/svgjs" width="1000" height="396" viewBox="0 0 1000 396">
  <g transform="matrix(1,0,0,1,-0.6060606060606233,0.34107132362188963)">
    <svg viewBox="0 0 396 157" data-background-color="#ffffff" preserveAspectRatio="xMidYMid meet" height="396"
         width="1000" xmlns="http://www.w3.org/2000/svg" xmlns:xlink="http://www.w3.org/1999/xlink">
      <g id="tight-bounds" transform="matrix(1,0,0,1,0.2400000000000091,-0.13522272173898386)">
        <svg viewBox="0 0 395.52 157.27044544347797" height="157.27044544347797" width="395.52">
          <g>
            <svg viewBox="0 0 621.6841551144386 247.20000000000002" height="157.27044544347797" width="395.52">
              <g transform="matrix(1,0,0,1,273.52212302887705,0)">
                <svg viewBox="0 0 348.1620320855615 247.20000000000002" height="247.20000000000002"
                     width="348.1620320855615">
                  <g id="textblocktransform">
                    <svg viewBox="0 0 348.1620320855615 247.20000000000002" height="247.20000000000002"
                         width="348.1620320855615" id="textblock">
                      <g>
                        <svg viewBox="0 0 348.1620320855615 247.20000000000002" height="247.20000000000002"
                             width="348.1620320855615">
                          <g transform="matrix(1,0,0,1,0,0)">
                            <svg width="348.1620320855615"
                                 viewBox="3.0299999713897705 -36.040000915527344 51.44000244140625 36.53000259399414"
                                 height="247.20000000000002" data-palette-color="#fff">
                              <path
                                d="M21.61-11.28L26.12-11.28Q25.83-5.57 22.91-2.54 20 0.49 14.67 0.49L14.67 0.49Q9.33 0.49 6.18-3.58 3.03-7.64 3.03-14.6L3.03-14.6 3.03-21.04Q3.03-27.98 6.26-32.01 9.5-36.04 15.09-36.04L15.09-36.04Q20.24-36.04 23.06-32.95 25.88-29.86 26.12-24.12L26.12-24.12 21.61-24.12Q21.31-28.47 19.78-30.32 18.24-32.18 15.09-32.18L15.09-32.18Q11.45-32.18 9.5-29.33 7.54-26.49 7.54-21L7.54-21 7.54-14.48Q7.54-9.08 9.36-6.2 11.18-3.32 14.67-3.32 18.16-3.32 19.7-5.05 21.24-6.79 21.61-11.28L21.61-11.28ZM49.95-11.28L54.47-11.28Q54.17-5.57 51.25-2.54 48.34 0.49 43.02 0.49L43.02 0.49Q37.67 0.49 34.52-3.58 31.37-7.64 31.37-14.6L31.37-14.6 31.37-21.04Q31.37-27.98 34.6-32.01 37.84-36.04 43.43-36.04L43.43-36.04Q48.58-36.04 51.4-32.95 54.22-29.86 54.47-24.12L54.47-24.12 49.95-24.12Q49.66-28.47 48.12-30.32 46.58-32.18 43.43-32.18L43.43-32.18Q39.79-32.18 37.84-29.33 35.89-26.49 35.89-21L35.89-21 35.89-14.48Q35.89-9.08 37.71-6.2 39.52-3.32 43.02-3.32 46.51-3.32 48.04-5.05 49.58-6.79 49.95-11.28L49.95-11.28Z"
                                opacity="1" transform="matrix(1,0,0,1,0,0)" fill="#fff" class="undefined-text-0"
                                data-fill-palette-color="primary" id="text-0"></path>
                            </svg>
                          </g>
                        </svg>
                      </g>
                    </svg>
                  </g>
                </svg>
              </g>
              <g transform="matrix(1,0,0,1,0,42.7601759232501)">
                <svg viewBox="0 0 215.16413582887705 161.6796481534998" height="161.6796481534998"
                     width="215.16413582887705">
                  <g>
                    <svg xmlns="http://www.w3.org/2000/svg" xmlns:xlink="http://www.w3.org/1999/xlink" version="1.1" x="0" y="0" viewBox="2.5 14.30000114440918 95.00000762939453 71.3853530883789" enable-background="new 0 0 100 100" xml:space="preserve" height="161.6796481534998" width="215.16413582887705" class="icon-icon-0" data-fill-palette-color="accent" id="icon-0"><path fill="#fff" d="M51.6 64.6l-6.5 17.9c-0.9 2.5-3.6 3.8-6.1 2.9l0 0c-2.5-0.9-3.8-3.6-2.9-6.1l6.5-17.9c0.9-2.5 3.6-3.8 6.1-2.9l0 0C51.2 59.3 52.5 62.1 51.6 64.6z" data-fill-palette-color="accent"></path><path
                      fill="#fff"
                      d="M94.6 23.9H62.2c-1.6 0-2.9-1.3-2.9-2.9v-3.8c0-1.6 1.3-2.9 2.9-2.9h32.4c1.6 0 2.9 1.3 2.9 2.9V21C97.5 22.6 96.2 23.9 94.6 23.9z"
                      data-fill-palette-color="accent"></path><path fill="#fff"
                                                                    d="M94.6 38.5H43.1c-1.6 0-2.9-1.3-2.9-2.9v-3.8c0-1.6 1.3-2.9 2.9-2.9h51.5c1.6 0 2.9 1.3 2.9 2.9v3.8C97.5 37.2 96.2 38.5 94.6 38.5z"
                                                                    data-fill-palette-color="accent"></path><path
                      fill="#fff"
                      d="M52.1 23.9H5.4c-1.6 0-2.9-1.3-2.9-2.9v-3.8c0-1.6 1.3-2.9 2.9-2.9h46.8c1.6 0 2.9 1.3 2.9 2.9V21C55 22.6 53.7 23.9 52.1 23.9z"
                      data-fill-palette-color="accent"></path><path fill="#fff"
                                                                    d="M33.5 67.7H5.4c-1.6 0-2.9-1.3-2.9-2.9V61c0-1.6 1.3-2.9 2.9-2.9h28.2c1.6 0 2.9 1.3 2.9 2.9v3.8C36.4 66.4 35.1 67.7 33.5 67.7z"
                                                                    data-fill-palette-color="accent"></path><path
                      fill="#fff"
                      d="M9.2 67.7H5.4c-1.6 0-2.9-1.3-2.9-2.9V17.2c0-1.6 1.3-2.9 2.9-2.9h3.8c1.6 0 2.9 1.3 2.9 2.9v47.6C12 66.4 10.8 67.7 9.2 67.7z"
                      data-fill-palette-color="accent"></path><path fill="#fff"
                                                                    d="M94.6 67.7H62.2c-1.6 0-2.9-1.3-2.9-2.9V61c0-1.6 1.3-2.9 2.9-2.9h32.4c1.6 0 2.9 1.3 2.9 2.9v3.8C97.5 66.4 96.2 67.7 94.6 67.7z"
                                                                    data-fill-palette-color="accent"></path><path
                      fill="#fff"
                      d="M36.1 82.5l-6.5-17.9c-0.9-2.5 0.4-5.2 2.9-6.1l0 0c2.5-0.9 5.2 0.4 6.1 2.9l6.5 17.9c0.9 2.5-0.4 5.2-2.9 6.1h0C39.8 86.3 37 85 36.1 82.5z"
                      data-fill-palette-color="accent"></path><path fill="#fff"
                                                                    d="M52.6 67.7h-5.9c-1.6 0-2.9-1.3-2.9-2.9V61c0-1.6 1.3-2.9 2.9-2.9h5.9c1.6 0 2.9 1.3 2.9 2.9v3.8C55.5 66.4 54.2 67.7 52.6 67.7z"
                                                                    data-fill-palette-color="accent"></path><path
                      fill="#fff"
                      d="M94.6 53.1H43.1c-1.6 0-2.9-1.3-2.9-2.9v-3.8c0-1.6 1.3-2.9 2.9-2.9h51.5c1.6 0 2.9 1.3 2.9 2.9v3.8C97.5 51.8 96.2 53.1 94.6 53.1z"
                      data-fill-palette-color="accent"></path></svg>
                  </g>
                </svg>
              </g>
            </svg>
          </g>
          <defs></defs>
        </svg>
        <rect width="395.52" height="157.27044544347797" fill="none" stroke="none" visibility="hidden"></rect>
      </g>
    </svg>
  </g>
</svg>
